<svg width="25" height="25" viewBox="0 0 25 25" fill="none" xmlns="http://www.w3.org/2000/svg">
<path d="M18.25 10.2H20.55C22.85 10.2 24 9.05 24 6.75V4.45C24 2.15 22.85 1 20.55 1H18.25C15.95 1 14.8 2.15 14.8 4.45V6.75C14.8 9.05 15.95 10.2 18.25 10.2Z" stroke="#C0C0C0" stroke-width="1.73685" stroke-miterlimit="10" stroke-linecap="round" stroke-linejoin="round"/>
<path d="M4.45 23.9999H6.75C9.05 23.9999 10.2 22.8499 10.2 20.5499V18.2499C10.2 15.9499 9.05 14.7999 6.75 14.7999H4.45C2.15 14.7999 1 15.9499 1 18.2499V20.5499C1 22.8499 2.15 23.9999 4.45 23.9999Z" stroke="#C0C0C0" stroke-width="1.73685" stroke-miterlimit="10" stroke-linecap="round" stroke-linejoin="round"/>
<path d="M5.6 10.2C8.14051 10.2 10.2 8.14051 10.2 5.6C10.2 3.05949 8.14051 1 5.6 1C3.05949 1 1 3.05949 1 5.6C1 8.14051 3.05949 10.2 5.6 10.2Z" stroke="#C0C0C0" stroke-width="1.73685" stroke-miterlimit="10" stroke-linecap="round" stroke-linejoin="round"/>
<path d="M19.4 23.9999C21.9404 23.9999 24 21.9404 24 19.3999C24 16.8595 21.9404 14.7999 19.4 14.7999C16.8595 14.7999 14.8 16.8595 14.8 19.3999C14.8 21.9404 16.8595 23.9999 19.4 23.9999Z" stroke="#C0C0C0" stroke-width="1.73685" stroke-miterlimit="10" stroke-linecap="round" stroke-linejoin="round"/>
</svg>
