<svg width="69" height="69" viewBox="0 0 69 69" fill="none" xmlns="http://www.w3.org/2000/svg">
<path d="M49.4931 51.7501H19.5069C18.3446 51.7533 17.2209 51.3335 16.3453 50.5691C15.4698 49.8046 14.9023 48.7478 14.7487 47.5957L11.5 23.6182C11.4193 23.0295 11.523 22.4303 11.7969 21.9029C12.0707 21.3756 12.5012 20.946 13.0292 20.6734C13.5572 20.4008 14.1566 20.2984 14.7451 20.3804C15.3337 20.4624 15.8823 20.7247 16.3156 21.1313L21.6775 26.0907C21.9609 26.3646 22.2976 26.5774 22.6667 26.7157C23.0358 26.854 23.4294 26.9149 23.8231 26.8947C24.2167 26.8745 24.602 26.7736 24.955 26.5981C25.308 26.4227 25.6211 26.1766 25.875 25.8751L32.2862 18.3138C32.5561 17.9933 32.8928 17.7356 33.2727 17.5588C33.6526 17.382 34.0666 17.2904 34.4856 17.2904C34.9046 17.2904 35.3186 17.382 35.6985 17.5588C36.0784 17.7356 36.4151 17.9933 36.685 18.3138L43.125 25.8751C43.3765 26.1719 43.6856 26.4147 44.0337 26.5886C44.3817 26.7625 44.7614 26.8639 45.1499 26.8868C45.5383 26.9096 45.9273 26.8534 46.2933 26.7215C46.6593 26.5896 46.9948 26.3848 47.2794 26.1194L52.6412 21.1601C53.0703 20.7395 53.6204 20.464 54.2141 20.3721C54.8078 20.2803 55.4154 20.3767 55.9515 20.6479C56.4876 20.9192 56.9253 21.3515 57.203 21.8843C57.4807 22.417 57.5846 23.0234 57.5 23.6182L54.2512 47.5813C54.1009 48.736 53.5348 49.7963 52.6589 50.5637C51.7831 51.331 50.6576 51.7528 49.4931 51.7501Z" fill="#FF6D9B"/>
</svg>
