<svg width="23" height="23" viewBox="0 0 23 23" fill="none" xmlns="http://www.w3.org/2000/svg">
<path d="M20.7368 5.54104L14.1194 0.906006C12.3157 -0.35914 9.54693 -0.290132 7.8122 1.05552L2.05645 5.55254C0.907594 6.44965 0 8.28986 0 9.73897V17.6749C0 20.6077 2.37813 23 5.3077 23H17.6923C20.6219 23 23 20.6192 23 17.6864V9.88849C23 8.33586 22.0005 6.42664 20.7368 5.54104ZM12.3616 18.3995C12.3616 18.871 11.971 19.2621 11.5 19.2621C11.029 19.2621 10.6383 18.871 10.6383 18.3995V14.9491C10.6383 14.4775 11.029 14.0865 11.5 14.0865C11.971 14.0865 12.3616 14.4775 12.3616 14.9491V18.3995Z" fill="#FF7BC3"/>
</svg>
