<svg width="16" height="16" viewBox="0 0 16 16" fill="none" xmlns="http://www.w3.org/2000/svg">
<g clip-path="url(#clip0_1_138)">
<path d="M7.72 3.10666L9.32 7.93333C9.33333 7.97333 9.33333 8.01333 9.32 8.05333L7.72 12.88C7.65333 13.08 7.89333 13.2267 8.05333 13.0933L13.24 8.14666C13.32 8.06666 13.32 7.93333 13.24 7.85333L8.04 2.90666C7.89333 2.76 7.65333 2.90666 7.72 3.10666Z" fill="#D83790"/>
<path d="M8.24 8.14667C8.32 8.06667 8.32 7.93333 8.24 7.85333L3.05333 2.90667C2.90666 2.76 2.66666 2.92 2.72 3.12L4.32 7.94667C4.33333 7.98667 4.33333 8.02667 4.32 8.06667L2.72 12.8933C2.65333 13.0933 2.89333 13.24 3.05333 13.1067L8.24 8.14667Z" fill="#D83790"/>
</g>
<defs>
<clipPath id="clip0_1_138">
<rect width="16" height="16" fill="white"/>
</clipPath>
</defs>
</svg>
