<svg width="16" height="16" viewBox="0 0 16 16" fill="none" xmlns="http://www.w3.org/2000/svg">
<g clip-path="url(#clip0_1_235)">
<path d="M6.556 0C10.1776 0 13.1128 2.896 13.1128 6.4672C13.1139 8.01704 12.5519 9.51449 11.5312 10.6808L15.8416 15.0592C15.893 15.1111 15.9335 15.1727 15.9607 15.2405C15.988 15.3082 16.0015 15.3807 16.0003 15.4537C15.9992 15.5267 15.9836 15.5988 15.9542 15.6657C15.9249 15.7326 15.8825 15.7929 15.8296 15.8432C15.722 15.9456 15.5786 16.0017 15.4301 15.9996C15.2816 15.9975 15.1399 15.9373 15.0352 15.832L10.7288 11.456C9.55031 12.416 8.07598 12.9386 6.556 12.9352C2.936 12.9352 0 10.0392 0 6.4672C0 2.896 2.936 0 6.556 0ZM6.556 1.1088C3.556 1.1088 1.124 3.508 1.124 6.4672C1.124 9.4272 3.556 11.8264 6.556 11.8264C9.556 11.8264 11.9888 9.4264 11.9888 6.4672C11.9888 3.5072 9.5568 1.1088 6.5568 1.1088H6.556Z" fill="white"/>
</g>
<defs>
<clipPath id="clip0_1_235">
<rect width="16" height="16" fill="white"/>
</clipPath>
</defs>
</svg>
