<svg width="25" height="25" viewBox="0 0 25 25" fill="none" xmlns="http://www.w3.org/2000/svg">
<path d="M1 1H3.04729C4.31801 1 5.31811 2.0695 5.21222 3.3L4.23564 14.754C4.07092 16.6285 5.58871 18.2385 7.51833 18.2385H20.0491C21.7434 18.2385 23.2259 16.8815 23.3553 15.237L23.9907 6.612C24.1319 4.703 22.6494 3.1505 20.6845 3.1505H5.49461" stroke="#C0C0C0" stroke-width="1.7757" stroke-miterlimit="10" stroke-linecap="round" stroke-linejoin="round"/>
<path d="M17.7666 24C18.5789 24 19.2373 23.3565 19.2373 22.5625C19.2373 21.7685 18.5789 21.125 17.7666 21.125C16.9543 21.125 16.2958 21.7685 16.2958 22.5625C16.2958 23.3565 16.9543 24 17.7666 24Z" stroke="#C0C0C0" stroke-width="1.7757" stroke-miterlimit="10" stroke-linecap="round" stroke-linejoin="round"/>
<path d="M8.35373 24C9.166 24 9.82447 23.3565 9.82447 22.5625C9.82447 21.7685 9.166 21.125 8.35373 21.125C7.54145 21.125 6.88298 21.7685 6.88298 22.5625C6.88298 23.3565 7.54145 24 8.35373 24Z" stroke="#C0C0C0" stroke-width="1.7757" stroke-miterlimit="10" stroke-linecap="round" stroke-linejoin="round"/>
<path d="M9.23623 7.8999H23.3554" stroke="#C0C0C0" stroke-width="1.7757" stroke-miterlimit="10" stroke-linecap="round" stroke-linejoin="round"/>
</svg>
